<?xml version="1.0" encoding="utf-8"?>
<svg width="135" height="35" viewBox="-33.42 0 192.707 31.928" fill="none" xmlns="http://www.w3.org/2000/svg" xmlns:bx="https://boxy-svg.com">
  <path d="M -19.7 11.527 L -31.258 17.243 L -10.549 11.454 C -6.402 9.765 -3.263 8.503 -3.263 8.502 C -5.214 8.839 -12.799 10.245 -19.7 11.527 Z" fill="url(#paint0_linear_2078_842)"/>
  <path d="M -29.668 23.713 C -29.668 23.713 -29.021 26.347 -28.502 28.463 C -28.498 28.462 -28.493 28.462 -28.488 28.463 C -28.289 29.11 -27.862 29.663 -27.285 30.018 C -26.709 30.374 -26.022 30.507 -25.355 30.392 C -25.347 30.405 1.033 23.987 1.033 23.987 L -0.318 18.469 L -29.668 23.713 Z" fill="url(#paint1_radial_2078_842)"/>
  <path d="M -11.988 27.148 L -12.074 27.2 L -12.279 31.479 C -12.279 31.479 0.005 24.506 0.969 23.998 C 0.269 24.169 -5.833 25.653 -11.988 27.148 Z" fill="url(#paint2_linear_2078_842)"/>
  <path d="M -31.258 17.243 L -29.867 22.91 C -29.867 22.91 -0.96 15.864 -0.945 15.926 C -0.929 15.989 -2.588 9.225 -2.588 9.225 L -31.258 17.243 Z" fill="url(#paint3_linear_2078_842)"/>
  <path d="M -29.67 23.714 L -8.48 19.927 C -4.216 17.655 -0.95 15.921 -0.944 15.931 C -0.956 15.883 -15.433 19.398 -23.897 21.456 L -29.67 23.714 Z" fill="url(#paint4_linear_2078_842)"/>
  <path opacity="0.4" d="M -12.155 27.19 C -5.377 25.539 1.031 23.983 1.031 23.983 L -0.318 18.469 L -6.598 19.591 C -7.876 22.852 -9.822 25.494 -12.155 27.19 Z" fill="#37C4EE"/>
  <path d="M -5.785 17.073 C -2.9 16.379 -0.948 15.917 -0.944 15.935 C -0.927 16.003 -2.588 9.234 -2.588 9.234 L -4.996 9.906 C -4.651 11.872 -4.783 14.69 -5.785 17.073 Z" fill="#F9C02E"/>
  <path d="M -4.033 3.392 C -4.429 2.015 -5.591 1.047 -7.216 1.441 L -12.57 2.76 C -12.392 3.11 -12.244 3.475 -12.128 3.851 C -12.03 3.955 -11.959 4.082 -11.923 4.22 C -11.895 4.333 -11.889 4.45 -11.907 4.565 C -11.924 4.68 -11.964 4.791 -12.024 4.891 C -12.084 4.99 -12.163 5.077 -12.257 5.146 C -12.351 5.215 -12.457 5.265 -12.57 5.293 C -12.683 5.321 -12.8 5.327 -12.915 5.309 C -13.03 5.292 -13.141 5.252 -13.24 5.192 C -13.34 5.132 -13.427 5.053 -13.496 4.959 C -13.565 4.865 -13.615 4.759 -13.643 4.646 C -13.685 4.475 -13.671 4.296 -13.605 4.133 C -13.558 4.272 -13.515 4.414 -13.479 4.56 L -12.334 4.276 C -12.766 2.674 -13.808 1.305 -15.238 0.462 C -16.667 -0.382 -18.369 -0.632 -19.981 -0.237 C -21.592 0.159 -22.985 1.17 -23.861 2.579 C -24.737 3.989 -25.026 5.685 -24.668 7.305 L -23.694 7.066 C -23.694 7.079 -23.694 7.093 -23.685 7.107 L -23.693 7.107 C -23.653 7.26 -23.656 7.422 -23.7 7.574 C -23.744 7.726 -23.828 7.864 -23.943 7.973 C -24.058 8.081 -24.201 8.157 -24.355 8.192 C -24.51 8.227 -24.671 8.22 -24.822 8.172 C -24.973 8.123 -25.108 8.035 -25.214 7.917 C -25.319 7.799 -25.39 7.654 -25.421 7.498 C -25.451 7.343 -25.44 7.182 -25.387 7.033 C -25.334 6.883 -25.242 6.751 -25.121 6.649 C -25.152 6.384 -25.168 6.117 -25.169 5.85 L -30.861 7.246 C -30.861 7.246 -30.861 7.246 -30.861 7.253 L -30.869 7.253 C -31.569 7.425 -32.174 7.865 -32.553 8.478 C -32.933 9.091 -33.057 9.828 -32.9 10.532 L -32.906 10.532 L -32.094 13.842 C -32.094 13.842 -2.801 8.362 -2.783 8.428 L -4.02 3.387 L -4.033 3.392 Z M -19.678 0.803 C -18.617 0.543 -17.501 0.629 -16.493 1.047 C -15.484 1.465 -14.636 2.194 -14.07 3.128 L -23.572 5.459 C -23.503 4.37 -23.088 3.331 -22.388 2.493 C -21.687 1.655 -20.738 1.063 -19.678 0.803 Z" fill="url(#paint5_radial_2078_842)"/>
  <defs>
    <linearGradient id="paint0_linear_2078_842" x1="16.5332" y1="17.655" x2="14.6036" y2="7.44939" gradientUnits="userSpaceOnUse" gradientTransform="matrix(1, 0, 0, 1, -32.966149, -0.419748)">
      <stop offset="0.46" stop-color="#F1634C"/>
      <stop offset="0.49" stop-color="#E8574E"/>
      <stop offset="0.55" stop-color="#D03652"/>
      <stop offset="0.59" stop-color="#BE1E55"/>
    </linearGradient>
    <radialGradient id="paint1_radial_2078_842" cx="0" cy="0" r="1" gradientUnits="userSpaceOnUse" gradientTransform="matrix(10.542211, -2.587465, 2.587465, 10.542211, -14.31565, 23.840752)">
      <stop stop-color="#20C1E9"/>
      <stop offset="1" stop-color="#0CAEC7"/>
    </radialGradient>
    <linearGradient id="paint2_linear_2078_842" x1="27.5043" y1="28.9387" x2="26.541" y2="25.0141" gradientUnits="userSpaceOnUse" gradientTransform="matrix(1, 0, 0, 1, -32.966149, -0.419748)">
      <stop offset="0.3" stop-color="#018EA2"/>
      <stop offset="0.41" stop-color="#018A9E"/>
      <stop offset="0.53" stop-color="#038091"/>
      <stop offset="0.63" stop-color="#047280"/>
    </linearGradient>
    <linearGradient id="paint3_linear_2078_842" x1="27.076" y1="14.0057" x2="5.56767" y2="19.2847" gradientUnits="userSpaceOnUse" gradientTransform="matrix(1, 0, 0, 1, -32.966149, -0.419748)">
      <stop stop-color="#FDD309"/>
      <stop offset="1" stop-color="#F79420"/>
    </linearGradient>
    <linearGradient id="paint4_linear_2078_842" x1="18.2258" y1="22.7976" x2="17.5217" y2="19.6014" gradientUnits="userSpaceOnUse" gradientTransform="matrix(1, 0, 0, 1, -32.966149, -0.419748)">
      <stop offset="0.33" stop-color="#FFDD0F"/>
      <stop offset="0.45" stop-color="#FDD910"/>
      <stop offset="0.56" stop-color="#F8CC13"/>
      <stop offset="0.69" stop-color="#EFB618"/>
      <stop offset="0.81" stop-color="#E3991F"/>
      <stop offset="0.94" stop-color="#D37328"/>
    </linearGradient>
    <radialGradient id="paint5_radial_2078_842" cx="0" cy="0" r="1" gradientUnits="userSpaceOnUse" gradientTransform="matrix(11.101803, -2.72481, 2.72481, 11.101803, -18.74065, 5.820701)">
      <stop stop-color="#ED3B87"/>
      <stop offset="1" stop-color="#DB377D"/>
    </radialGradient>
    <style bx:fonts="ABeeZee">@import url(https://fonts.googleapis.com/css2?family=ABeeZee%3Aital%2Cwght%400%2C400%3B1%2C400&amp;display=swap);</style>
  </defs>
  <text style="fill: rgb(51, 51, 51); font-family: Impact; font-size: 19px; white-space: pre;" transform="matrix(1.933643, 0, 0, 1.956379, -63.957364, -22.396326)"><tspan style="font-weight: 700; letter-spacing: 1px;" x="35.878" y="26.981">ART</tspan></text>
  <text style="white-space: pre; fill: rgb(51, 51, 51); font-family: Arial, sans-serif; font-size: 2.6px;" x="127.65" y="-6.835"> </text>
  <text style="fill: rgb(120, 116, 116); font-family: ABeeZee; font-size: 24px; letter-spacing: 0.2px; word-spacing: -13.8px; white-space: pre;" transform="matrix(0.938295, 0, 0, 1.689059, 9.444948, -7.516479)"><tspan x="66.411" y="22.283"> </tspan><tspan style="font-family: Arial;">STUDIO</tspan></text>
  <text style="fill: rgb(116, 114, 114); font-family: Arial, sans-serif; font-size: 26px; white-space: pre;" transform="matrix(1, 0, 0, 1.17801, 0, 0.684456)" x="64.984" y="19.7">|</text>
</svg>